<?xml version="1.0" standalone="no"?>
<!DOCTYPE svg PUBLIC "-//W3C//DTD SVG 20010904//EN"
 "http://www.w3.org/TR/2001/REC-SVG-20010904/DTD/svg10.dtd">
<svg version="1.0" xmlns="http://www.w3.org/2000/svg"
 width="1080.000000pt" height="1080.000000pt" viewBox="0 0 1080.000000 1080.000000"
 preserveAspectRatio="xMidYMid meet">
<metadata>
Created by potrace 1.14, written by Peter Selinger 2001-2017
</metadata>
<g transform="translate(0.000000,1080.000000) scale(0.100000,-0.100000)"
fill="#000000" stroke="none">
<path d="M2285 10081 c-452 -81 -843 -430 -970 -867 -58 -198 -55 -45 -55
-2989 0 -2948 -3 -2778 55 -2980 70 -242 240 -486 449 -642 140 -104 341 -191
532 -230 85 -17 222 -18 2839 -18 2617 0 2754 1 2840 18 278 56 493 174 687
375 167 173 272 374 325 622 17 81 18 214 18 2860 0 2672 -1 2778 -19 2860
-53 245 -162 452 -325 623 -190 199 -436 329 -701 372 -83 13 -428 15 -2835
14 -2582 -1 -2746 -2 -2840 -18z m5675 -203 c105 -22 161 -42 265 -94 287
-145 484 -401 556 -724 18 -82 19 -177 19 -2827 0 -2416 -2 -2750 -15 -2815
-45 -215 -129 -379 -275 -532 -66 -69 -200 -176 -221 -176 -4 0 2 28 13 63 51
163 62 242 62 457 0 230 -10 303 -74 593 -91 407 -246 932 -352 1197 -106 263
-286 581 -437 771 -77 95 -272 290 -386 383 -307 253 -629 432 -985 550 -347
114 -628 163 -1010 173 -699 18 -1321 -150 -1862 -504 -342 -224 -634 -547
-810 -897 -230 -458 -511 -1442 -589 -2061 -23 -189 -29 -482 -10 -574 6 -30
9 -57 6 -60 -11 -10 -158 147 -211 225 -68 102 -107 189 -142 312 l-27 97 0
2795 0 2795 28 99 c116 415 468 717 892 765 46 5 1238 8 2785 7 2437 -2 2712
-4 2780 -18z m-4180 -4638 c103 -25 280 -110 371 -179 259 -197 484 -550 609
-957 72 -233 123 -563 130 -837 0 -5 23 11 50 35 122 105 157 113 237 50 26
-21 54 -46 62 -55 7 -10 16 -17 20 -17 4 0 12 83 19 185 25 376 102 687 242
974 257 526 635 809 1054 788 244 -12 455 -114 656 -316 299 -303 498 -772
555 -1309 33 -311 8 -732 -58 -987 l-13 -50 -1155 -2 c-635 -1 -1147 1 -1139
6 8 4 85 27 170 51 85 23 175 48 200 55 l45 14 -62 0 c-35 1 -63 5 -63 11 0 6
20 10 44 10 25 0 47 4 50 8 3 5 -23 33 -58 63 -35 30 -143 126 -242 214 -389
349 -384 345 -414 345 -33 0 -34 -1 -385 -315 -147 -132 -283 -253 -301 -268
-19 -16 -34 -33 -34 -38 0 -5 26 -9 57 -9 73 0 59 -18 -17 -22 -55 -3 -55 -3
86 -41 77 -21 174 -48 215 -61 l74 -24 -1175 0 c-646 0 -1195 3 -1220 6 l-45
7 -22 130 c-36 217 -46 369 -40 609 8 306 40 522 114 766 192 637 564 1068
1008 1165 95 21 275 18 375 -5z"/>
<path d="M3678 4361 c-167 -54 -293 -198 -359 -411 -30 -97 -33 -289 -5 -389
48 -176 163 -326 303 -397 75 -39 77 -39 192 -39 112 0 119 1 186 34 143 70
255 216 307 398 28 100 30 276 4 373 -58 217 -201 383 -375 434 -72 21 -182
20 -253 -3z m179 -62 c89 -33 138 -159 100 -252 -62 -147 -234 -154 -298 -12
-68 148 59 317 198 264z m-266 -198 c24 -24 29 -38 29 -76 0 -105 -118 -145
-165 -55 -28 55 -12 119 36 146 38 21 68 16 100 -15z"/>
<path d="M6225 4332 c-84 -25 -115 -44 -183 -107 -259 -240 -282 -688 -49
-971 41 -49 147 -122 213 -145 73 -26 204 -27 277 -3 138 45 268 177 330 334
72 182 63 432 -23 605 -63 128 -182 240 -295 279 -75 26 -197 30 -270 8z m242
-101 c82 -38 124 -154 89 -245 -74 -195 -329 -126 -314 84 5 75 42 134 101
161 53 23 71 23 124 0z m272 -190 c62 -62 14 -203 -61 -183 -27 7 -58 60 -58
100 0 84 70 132 119 83z"/>
</g>
</svg>
